<?xml version="1.0" encoding="UTF-8"?>
<svg width="48px" height="32px" viewBox="0 0 48 32" version="1.1" xmlns="http://www.w3.org/2000/svg" xmlns:xlink="http://www.w3.org/1999/xlink">
    <title>Group 9</title>
    <g id="01-1-payment-history-copy" stroke="none" stroke-width="1" fill="none" fill-rule="evenodd">
        <g id="pf-billing-2-payment-history-view-desktop-unconfirmed-payment-copy-15" transform="translate(-288.000000, -846.000000)">
            <g id="Group-8" transform="translate(276.000000, 490.000000)">
                <g id="Group-9" transform="translate(12.000000, 356.000000)">
                    <rect id="Rectangle" x="0" y="0" width="48" height="32"></rect>
                    <g id="applepay" transform="translate(0.000000, 0.000000)" fill-rule="nonzero">
                        <path d="M43.70148,0 L4.298616,0 C4.134516,0 3.970116,0 3.806304,0.0009716412 C3.667824,0.001972728 3.52968,0.003533244 3.391524,0.00736092 C3.090216,0.01563456 2.78634,0.03368352 2.4888,0.08797764 C2.186508,0.143214 1.905216,0.2333112 1.6308,0.3751716 C1.361016,0.5144688 1.1140308,0.696666 0.8999904,0.9140784 C0.6858564,1.1314908 0.5064084,1.381848 0.3692412,1.65606 C0.229494,1.934688 0.1406976,2.220372 0.08667204,2.527536 C0.03291024,2.829708 0.01501464,3.138192 0.006894876,3.443784 C0.003182964,3.584064 0.0015909,3.724332 0.000689024396,3.864564 C0,4.031244 0,4.197816 0,4.364784 L0,26.83548 C0,27.00252 0,27.16884 0.000689024396,27.33576 C0.0015909,27.47604 0.003182964,27.61632 0.006894876,27.7566 C0.01501464,28.06188 0.03291024,28.3704 0.08667204,28.67244 C0.1406976,28.97976 0.229494,29.26536 0.3692412,29.544 C0.5064084,29.8182 0.6858564,30.06888 0.8999904,30.28596 C1.1140308,30.50376 1.361016,30.68592 1.6308,30.82488 C1.905216,30.96708 2.186508,31.0572 2.4888,31.1124 C2.78634,31.1664 3.090216,31.18476 3.391524,31.19304 C3.52968,31.19616 3.667824,31.19808 3.806304,31.19868 C3.970116,31.2 4.134516,31.2 4.298616,31.2 L43.70148,31.2 C43.86528,31.2 44.02968,31.2 44.19348,31.19868 C44.3316,31.19808 44.46972,31.19616 44.60856,31.19304 C44.90916,31.18476 45.213,31.1664 45.51132,31.1124 C45.81312,31.0572 46.09452,30.96708 46.36896,30.82488 C46.63908,30.68592 46.88532,30.50376 47.09976,30.28596 C47.3136,30.06888 47.493,29.8182 47.63052,29.544 C47.77056,29.26536 47.85924,28.97976 47.913,28.67244 C47.96688,28.3704 47.98428,28.06188 47.99244,27.7566 C47.99628,27.61632 47.99808,27.47604 47.99868,27.33576 C48,27.16884 48,27.00252 48,26.83548 L48,4.364784 C48,4.197816 48,4.031244 47.99868,3.864564 C47.99808,3.724332 47.99628,3.584064 47.99244,3.443784 C47.98428,3.138192 47.96688,2.829708 47.913,2.527536 C47.85924,2.220372 47.77056,1.934688 47.63052,1.65606 C47.493,1.381848 47.3136,1.1314908 47.09976,0.9140784 C46.88532,0.696666 46.63908,0.5144688 46.36896,0.3751716 C46.09452,0.2333112 45.81312,0.143214 45.51132,0.08797764 C45.213,0.03368352 44.90916,0.01563456 44.60856,0.00736092 C44.46972,0.003533244 44.3316,0.001972728 44.19348,0.0009716412 C44.02968,0 43.86528,0 43.70148,0 Z" id="Path" fill="#000000"></path>
                        <path d="M44.18604,1.0408344 C44.31744,1.0417764 44.44872,1.04322 44.58072,1.0468704 C44.8104,1.0531716 45.07908,1.0658028 45.32952,1.1113812 C45.5472,1.15119 45.72984,1.211724 45.90504,1.3023 C46.07796,1.391544 46.23648,1.508484 46.37484,1.648788 C46.5138,1.790028 46.62912,1.9512 46.71816,2.128776 C46.80684,2.305296 46.86612,2.489784 46.90512,2.712444 C46.94988,2.963952 46.96224,3.23748 46.9686,3.472116 C46.97208,3.604548 46.97388,3.736992 46.97448,3.87258 C46.97568,4.036548 46.97568,4.200432 46.97568,4.364724 L46.97568,26.83548 C46.97568,26.99976 46.97568,27.16332 46.97448,27.33084 C46.97388,27.4632 46.97208,27.59568 46.96848,27.7284 C46.96224,27.96264 46.94988,28.236 46.90452,28.49052 C46.86612,28.71012 46.80696,28.89468 46.71768,29.07204 C46.62888,29.24916 46.5138,29.4102 46.37544,29.55048 C46.23624,29.69184 46.07832,29.80848 45.90324,29.89848 C45.72936,29.9886 45.54708,30.04908 45.33156,30.08856 C45.07608,30.13476 44.79612,30.14748 44.58528,30.15324 C44.45268,30.15624 44.32068,30.15816 44.18544,30.15876 C44.02428,30.1599628 43.86252,30.1599628 43.70136,30.1599628 L4.298568,30.1599628 C4.132836,30.1599628 3.973188,30.1599628 3.810972,30.15876 C3.678696,30.15816 3.54672,30.15636 3.419124,30.15336 C3.203484,30.14748 2.92338,30.13476 2.669964,30.0888 C2.45256,30.04908 2.270292,29.9886 2.094096,29.89728 C1.920708,29.808 1.76286,29.6916 1.623636,29.55 C1.48548,29.40996 1.370676,29.2494 1.281912,29.07204 C1.1930532,28.8948 1.133604,28.70976 1.0945164,28.48752 C1.0493328,28.2336 1.03692,27.9612 1.0307172,27.72852 C1.0271772,27.59532 1.0256976,27.46212 1.0248564,27.32964 L1.0242192,26.93868 L1.0242192,26.83548 L1.0242192,4.364724 L1.0242192,4.2615 L1.0248276,3.871344 C1.0256976,3.738108 1.0271772,3.604908 1.0307172,3.471792 C1.03692,3.23886 1.0493316,2.966448 1.0948896,2.710344 C1.1336328,2.490144 1.1930532,2.305056 1.282368,2.126952 C1.370436,1.950912 1.485456,1.790208 1.624332,1.649232 C1.762656,1.508724 1.92102,1.391916 2.095512,1.30182 C2.269824,1.2117 2.45244,1.15119 2.669844,1.11147 C2.920344,1.065774 3.189192,1.0531716 3.419448,1.0468416 C3.550704,1.04322 3.681948,1.0417764 3.81222,1.0408644 L4.298568,1.0398924 L43.70136,1.0398924 L44.18604,1.0408344 Z" id="Path" fill="#FFFFFF"></path>
                        <path d="M13.10364,10.335408 C13.51464,9.82134 13.79352,9.131112 13.71996,8.425776 C13.11828,8.455692 12.38412,8.8227 11.959068,9.337164 C11.57742,9.77772 11.23962,10.496856 11.327688,11.172612 C12.003,11.231196 12.67776,10.83504 13.10364,10.335408 Z" id="Path" fill="#000000"></path>
                        <path d="M13.71216,11.3046 C12.7314,11.246172 11.897484,11.861244 11.429112,11.861244 C10.960476,11.861244 10.243236,11.334036 9.467484,11.348244 C8.457792,11.363076 7.520916,11.933964 7.00854,12.84192 C5.954676,14.65836 6.730428,17.35272 7.755264,18.83208 C8.25294,19.56396 8.852736,20.36976 9.643044,20.34084 C10.389756,20.31156 10.682448,19.85736 11.590104,19.85736 C12.49716,19.85736 12.7608,20.34084 13.55124,20.3262 C14.37096,20.31156 14.88336,19.59396 15.381,18.86136 C15.95196,18.027 16.18572,17.22144 16.20036,17.17728 C16.18572,17.16264 14.61972,16.5618 14.6052,14.7606 C14.59044,13.25232 15.83472,12.53484 15.89328,12.49044 C15.19056,11.451216 14.0928,11.334036 13.71216,11.3046 Z" id="Path" fill="#000000"></path>
                        <path d="M22.25196,9.263376 C24.38364,9.263376 25.86804,10.7328 25.86804,12.87216 C25.86804,15.0192 24.35316,16.49628 22.19856,16.49628 L19.83828,16.49628 L19.83828,20.24964 L18.13296,20.24964 L18.13296,9.263376 L22.25196,9.263376 L22.25196,9.263376 Z M19.83828,15.0648 L21.795,15.0648 C23.27964,15.0648 24.12468,14.26548 24.12468,12.87984 C24.12468,11.494236 23.27964,10.702404 21.80256,10.702404 L19.83828,10.702404 L19.83828,15.0648 Z" id="Shape" fill="#000000"></path>
                        <path d="M26.3136,17.97336 C26.3136,16.57236 27.38712,15.71208 29.29056,15.60552 L31.48308,15.47604 L31.48308,14.85948 C31.48308,13.9686 30.88164,13.43568 29.87688,13.43568 C28.92492,13.43568 28.33104,13.8924 28.18656,14.6082 L26.6334,14.6082 C26.72472,13.16148 27.95808,12.09564 29.9376,12.09564 C31.87908,12.09564 33.12,13.12344 33.12,14.72988 L33.12,20.24976 L31.54392,20.24976 L31.54392,18.93252 L31.506,18.93252 C31.04172,19.8234 30.02892,20.38668 28.97844,20.38668 C27.41004,20.38668 26.3136,19.41216 26.3136,17.97336 Z M31.48308,17.25012 L31.48308,16.6182 L29.51112,16.73988 C28.52904,16.80852 27.97332,17.24244 27.97332,17.92764 C27.97332,18.62796 28.55196,19.08492 29.43504,19.08492 C30.58464,19.08492 31.48308,18.29304 31.48308,17.25012 Z" id="Shape" fill="#000000"></path>
                        <path d="M34.60776,23.19624 L34.60776,21.86388 C34.72932,21.89424 35.0034,21.89424 35.14056,21.89424 C35.90184,21.89424 36.31308,21.57456 36.56412,20.75232 C36.56412,20.73708 36.70896,20.26512 36.70896,20.25744 L33.81588,12.24036 L35.59728,12.24036 L37.62264,18.75756 L37.65288,18.75756 L39.67836,12.24036 L41.41416,12.24036 L38.41416,20.66844 C37.72932,22.61004 36.93744,23.23428 35.27772,23.23428 C35.14056,23.23428 34.72932,23.21904 34.60776,23.19624 Z" id="Path" fill="#000000"></path>
                    </g>
                </g>
            </g>
        </g>
    </g>
</svg>