<?xml version="1.0" encoding="utf-8"?>
<!-- Generator: Adobe Illustrator 26.0.3, SVG Export Plug-In . SVG Version: 6.00 Build 0)  -->
<svg version="1.1" id="Layer_1" xmlns="http://www.w3.org/2000/svg" xmlns:xlink="http://www.w3.org/1999/xlink" x="0px" y="0px"
	 viewBox="0 0 48 32" style="enable-background:new 0 0 48 32;" xml:space="preserve">
<style type="text/css">
	.st0{fill:#008384;stroke:#008384;stroke-width:1.5;}
	.st1{fill:#FFFFFF;stroke:#FFFFFF;stroke-width:0.1;}
</style>
<path class="st0" d="M44.9,30.7h-42c-1.1,0-2.1-0.9-2.1-2.1V3.3c0-1.2,0.9-2.1,2.1-2.1h42C46,1.2,47,2.1,47,3.3v25.4
	C46.9,29.8,46,30.7,44.9,30.7z"/>
<path class="st1" d="M24.8,20.7c-2.7,0.1-5-2.1-5-4.8c0-0.1,0-0.2,0-0.3c-0.1-2.7,2-5,4.7-5.1c0.1,0,0.2,0,0.3,0
	c1.6,0,3,0.9,3.7,2.3l2.9-1.5c-1.2-2.2-3.5-3.7-6-3.8V5.3h-2.2v2.2c-4,0.6-6.8,4.1-6.7,8.1c-0.1,4,2.8,7.5,6.7,8.1v2.9h2.2v-2.8
	c2.5-0.1,4.8-1.5,6-3.8l-2.9-1.3C27.6,19.9,26.2,20.7,24.8,20.7z"/>
</svg>
