<svg width="312" height="306" viewBox="0 0 312 306" fill="none" xmlns="http://www.w3.org/2000/svg">
<path d="M44.5248 305.129L283.622 252.822C292.939 250.785 301.071 245.137 306.236 237.114C311.402 229.09 313.182 219.346 311.185 210.013C309.876 203.789 306.911 198.035 302.604 193.358L137.745 12.363C133.523 7.63663 128.112 4.12967 122.075 2.20735C116.038 0.285023 109.597 0.0176438 103.421 1.43305C97.2241 2.71752 91.4836 5.63965 86.7965 9.89573C82.1094 14.1518 78.6468 19.5865 76.7685 25.6351L2.52999 259.067C0.644328 265.089 0.36947 271.499 1.73284 277.66C3.0962 283.821 6.05011 289.516 10.2998 294.177C14.5495 298.839 19.9463 302.303 25.9518 304.225C31.9572 306.146 38.3613 306.458 44.5248 305.129H44.5248Z" fill="#D5F7F6"/>
<path d="M255.265 119.227C256.659 117.132 258.475 115.351 260.597 114C262.72 112.649 265.101 111.758 267.588 111.382L256.951 59.4543L14.7378 109.147L25.3745 161.076C28.8873 160.141 32.6014 160.304 36.0195 161.541C39.4376 162.778 42.3964 165.03 44.4998 167.997L47.3891 182.102C46.9256 184.259 46.0648 186.31 44.8506 188.152C43.4568 190.247 41.6404 192.027 39.5181 193.378C37.3958 194.729 35.0147 195.621 32.5276 195.996L43.9307 251.666L286.144 201.973L274.741 146.303C271.228 147.237 267.514 147.075 264.096 145.838C260.678 144.601 257.719 142.348 255.616 139.382L252.726 125.277C253.19 123.12 254.051 121.068 255.265 119.227Z" fill="#11ABA3"/>
<path fill-rule="evenodd" clip-rule="evenodd" d="M285.661 89.2786H28.7275V144.362C32.4756 144.151 36.1995 145.083 39.4069 147.035C42.6143 148.988 45.1542 151.868 46.691 155.296C48.2277 158.723 48.6888 162.537 48.0134 166.233C47.3379 169.929 45.5577 173.332 42.9081 175.994C41.0523 177.835 38.8319 179.268 36.3898 180.2C33.9476 181.133 31.3376 181.543 28.7275 181.406V240.458H285.661V181.406C281.913 181.617 278.189 180.685 274.982 178.733C271.774 176.781 269.234 173.9 267.697 170.472C266.161 167.045 265.7 163.231 266.375 159.535C267.051 155.84 268.831 152.436 271.48 149.775C273.336 147.933 275.557 146.5 277.999 145.568C280.441 144.636 283.051 144.225 285.661 144.363V89.2786Z" fill="#25BCB4" stroke="#25BCB4"/>
<path d="M284.459 222.298H29.8091V239.376H284.459V222.298Z" fill="#7DCECE"/>
<path d="M284.459 90.3611H29.8091V107.439H284.459V90.3611Z" fill="#7DCECE"/>
<path d="M157.71 192.414C172.909 192.414 185.23 180.083 185.23 164.872C185.23 149.662 172.909 137.331 157.71 137.331C142.511 137.331 130.19 149.662 130.19 164.872C130.19 180.083 142.511 192.414 157.71 192.414Z" fill="#B7E2E4"/>
<path d="M157.71 199.27C176.692 199.27 192.08 183.87 192.08 164.872C192.08 145.875 176.692 130.475 157.71 130.475C138.728 130.475 123.34 145.875 123.34 164.872C123.34 183.87 138.728 199.27 157.71 199.27Z" stroke="#B7E2E4" stroke-width="1.3"/>
<path fill-rule="evenodd" clip-rule="evenodd" d="M98.1886 161.802L91.458 164.928L98.1886 167.935L101.193 174.671L104.317 167.935L111.047 164.928L104.317 161.802L101.193 155.066L98.1886 161.802Z" fill="#B7E2E4"/>
<path fill-rule="evenodd" clip-rule="evenodd" d="M210.191 161.802L203.462 164.928L210.191 167.935L213.196 174.671L216.2 167.935L222.929 164.928L216.2 161.802L213.196 155.066L210.191 161.802Z" fill="#B7E2E4"/>
<path fill-rule="evenodd" clip-rule="evenodd" d="M43.8496 208.283L41.2065 209.605L43.8496 210.928L45.0519 213.695L46.2529 210.928L49.0177 209.605L46.2529 208.283L45.0519 205.516L43.8496 208.283Z" fill="#B7E2E4"/>
<path fill-rule="evenodd" clip-rule="evenodd" d="M66.323 208.283L63.6787 209.605L66.323 210.928L67.6445 213.695L68.8468 210.928L71.4898 209.605L68.8468 208.283L67.6445 205.516L66.323 208.283Z" fill="#B7E2E4"/>
<path fill-rule="evenodd" clip-rule="evenodd" d="M88.9153 208.283L86.271 209.605L88.9153 210.928L90.1176 213.695L91.3186 210.928L94.0834 209.605L91.3186 208.283L90.1176 205.516L88.9153 208.283Z" fill="#B7E2E4"/>
<path fill-rule="evenodd" clip-rule="evenodd" d="M111.388 208.283L108.744 209.605L111.388 210.928L112.71 213.695L113.911 210.928L116.555 209.605L113.911 208.283L112.71 205.516L111.388 208.283Z" fill="#B7E2E4"/>
<path fill-rule="evenodd" clip-rule="evenodd" d="M133.981 208.283L131.216 209.605L133.981 210.928L135.182 213.695L136.384 210.928L139.148 209.605L136.384 208.283L135.182 205.516L133.981 208.283Z" fill="#B7E2E4"/>
<path fill-rule="evenodd" clip-rule="evenodd" d="M156.453 208.283L153.81 209.605L156.453 210.928L157.776 213.695L158.977 210.928L161.621 209.605L158.977 208.283L157.776 205.516L156.453 208.283Z" fill="#B7E2E4"/>
<path fill-rule="evenodd" clip-rule="evenodd" d="M179.047 208.283L176.282 209.605L179.047 210.928L180.248 213.695L181.45 210.928L184.214 209.605L181.45 208.283L180.248 205.516L179.047 208.283Z" fill="#B7E2E4"/>
<path fill-rule="evenodd" clip-rule="evenodd" d="M201.519 208.283L198.875 209.605L201.519 210.928L202.84 213.695L204.043 210.928L206.687 209.605L204.043 208.283L202.84 205.516L201.519 208.283Z" fill="#B7E2E4"/>
<path fill-rule="evenodd" clip-rule="evenodd" d="M224.112 208.283L221.348 209.605L224.112 210.928L225.314 213.695L226.515 210.928L229.28 209.605L226.515 208.283L225.314 205.516L224.112 208.283Z" fill="#B7E2E4"/>
<path fill-rule="evenodd" clip-rule="evenodd" d="M246.585 208.283L243.94 209.605L246.585 210.928L247.786 213.695L249.109 210.928L251.752 209.605L249.109 208.283L247.786 205.516L246.585 208.283Z" fill="#B7E2E4"/>
<path fill-rule="evenodd" clip-rule="evenodd" d="M269.177 208.283L266.414 209.605L269.177 210.928L270.379 213.695L271.58 210.928L274.345 209.605L271.58 208.283L270.379 205.516L269.177 208.283Z" fill="#B7E2E4"/>
<path fill-rule="evenodd" clip-rule="evenodd" d="M43.8496 117.852L41.2065 119.175L43.8496 120.377L45.0519 123.264L46.2529 120.377L49.0177 119.175L46.2529 117.852L45.0519 115.085L43.8496 117.852Z" fill="#B7E2E4"/>
<path fill-rule="evenodd" clip-rule="evenodd" d="M66.323 117.852L63.6787 119.175L66.323 120.377L67.6445 123.264L68.8468 120.377L71.4898 119.175L68.8468 117.852L67.6445 115.085L66.323 117.852Z" fill="#B7E2E4"/>
<path fill-rule="evenodd" clip-rule="evenodd" d="M88.9153 117.852L86.271 119.175L88.9153 120.377L90.1176 123.264L91.3186 120.377L94.0834 119.175L91.3186 117.852L90.1176 115.085L88.9153 117.852Z" fill="#B7E2E4"/>
<path fill-rule="evenodd" clip-rule="evenodd" d="M111.388 117.852L108.744 119.175L111.388 120.377L112.71 123.264L113.911 120.377L116.555 119.175L113.911 117.852L112.71 115.085L111.388 117.852Z" fill="#B7E2E4"/>
<path fill-rule="evenodd" clip-rule="evenodd" d="M133.981 117.852L131.216 119.175L133.981 120.377L135.182 123.264L136.384 120.377L139.148 119.175L136.384 117.852L135.182 115.085L133.981 117.852Z" fill="#B7E2E4"/>
<path fill-rule="evenodd" clip-rule="evenodd" d="M156.453 117.852L153.81 119.175L156.453 120.377L157.776 123.264L158.977 120.377L161.621 119.175L158.977 117.852L157.776 115.085L156.453 117.852Z" fill="#B7E2E4"/>
<path fill-rule="evenodd" clip-rule="evenodd" d="M179.047 117.852L176.282 119.175L179.047 120.377L180.248 123.264L181.45 120.377L184.214 119.175L181.45 117.852L180.248 115.085L179.047 117.852Z" fill="#B7E2E4"/>
<path fill-rule="evenodd" clip-rule="evenodd" d="M201.519 117.852L198.875 119.175L201.519 120.377L202.84 123.264L204.043 120.377L206.687 119.175L204.043 117.852L202.84 115.085L201.519 117.852Z" fill="#B7E2E4"/>
<path fill-rule="evenodd" clip-rule="evenodd" d="M224.112 117.852L221.348 119.175L224.112 120.377L225.314 123.264L226.515 120.377L229.28 119.175L226.515 117.852L225.314 115.085L224.112 117.852Z" fill="#B7E2E4"/>
<path fill-rule="evenodd" clip-rule="evenodd" d="M246.585 117.852L243.94 119.175L246.585 120.377L247.786 123.264L249.109 120.377L251.752 119.175L249.109 117.852L247.786 115.085L246.585 117.852Z" fill="#B7E2E4"/>
<path fill-rule="evenodd" clip-rule="evenodd" d="M269.177 117.852L266.414 119.175L269.177 120.377L270.379 123.264L271.58 120.377L274.345 119.175L271.58 117.852L270.379 115.085L269.177 117.852Z" fill="#B7E2E4"/>
<path d="M158.636 181.646V178.279C164.405 177.918 166.568 174.31 166.568 170.942C166.568 166.011 162.482 164.568 158.636 163.485V155.307C160.766 155.571 162.729 156.596 164.165 158.193L165.967 155.908C164.016 153.911 161.417 152.674 158.636 152.42V148.933H156.353V152.3C151.907 152.661 148.662 155.427 148.662 159.276C148.662 163.846 152.628 165.169 156.353 166.252V175.392C153.795 175.088 151.439 173.846 149.744 171.904L147.941 174.31C149.013 175.524 150.324 176.504 151.793 177.187C153.261 177.87 154.855 178.241 156.473 178.279V181.646H158.636L158.636 181.646ZM156.353 163.004C153.829 162.283 151.907 161.32 151.907 159.276C151.907 157.111 153.709 155.548 156.353 155.307V163.004ZM158.636 175.512V166.973C161.28 167.815 163.323 168.777 163.323 171.183C163.323 172.987 162.122 175.152 158.636 175.512H158.636Z" fill="#25BCB4"/>
<path d="M158.636 181.646V178.279C164.405 177.918 166.568 174.31 166.568 170.942C166.568 166.011 162.482 164.568 158.636 163.485V155.307C160.766 155.571 162.729 156.596 164.165 158.193L165.967 155.908C164.016 153.911 161.417 152.674 158.636 152.42V148.933H156.353V152.3C151.907 152.661 148.662 155.427 148.662 159.276C148.662 163.846 152.628 165.169 156.353 166.252V175.392C153.795 175.088 151.439 173.846 149.744 171.904L147.941 174.31C149.013 175.524 150.324 176.504 151.793 177.187C153.261 177.87 154.855 178.241 156.473 178.279V181.646H158.636L158.636 181.646ZM156.353 163.004C153.829 162.283 151.907 161.32 151.907 159.276C151.907 157.111 153.709 155.548 156.353 155.307V163.004ZM158.636 175.512V166.973C161.28 167.815 163.323 168.777 163.323 171.183C163.323 172.987 162.122 175.152 158.636 175.512H158.636Z" fill="#25BCB4"/>
<path d="M77.7588 94.6907V238.775" stroke="#128881" stroke-width="1.3" stroke-miterlimit="10" stroke-dasharray="6.13 6.13"/>
<path d="M236.629 94.6907V238.775" stroke="#128881" stroke-width="1.3" stroke-miterlimit="10" stroke-dasharray="6.13 6.13"/>
<path d="M46.7539 184.052C49.8733 181.478 52.3852 178.245 54.1097 174.586C55.8341 170.926 56.7284 166.93 56.7284 162.884C56.7284 158.838 55.8341 154.842 54.1097 151.182C52.3852 147.523 49.8733 144.29 46.7539 141.717" stroke="#128881" stroke-width="1.3" stroke-miterlimit="10"/>
<path d="M267.635 184.052C264.515 181.478 262.003 178.245 260.279 174.586C258.554 170.926 257.66 166.93 257.66 162.884C257.66 158.838 258.554 154.842 260.279 151.182C262.003 147.523 264.515 144.29 267.635 141.717" stroke="#128881" stroke-width="1.3" stroke-miterlimit="10"/>
</svg>
