<svg width="56" height="56" viewBox="0 0 56 56" fill="none" xmlns="http://www.w3.org/2000/svg">
<g clip-path="url(#clip0_2493_8267)">
<g clip-path="url(#clip1_2493_8267)">
<path d="M28 50C40.1503 50 50 40.1503 50 28C50 15.8497 40.1503 6 28 6C15.8497 6 6 15.8497 6 28C6 40.1503 15.8497 50 28 50Z" fill="white"/>
<path fill-rule="evenodd" clip-rule="evenodd" d="M20.3773 45.9407H20.2123C17.2218 44.6275 14.6056 42.5898 12.6003 40.0117C12.5421 39.9424 12.5102 39.8548 12.5102 39.7642C12.5102 39.6737 12.5421 39.5861 12.6003 39.5167C12.6384 39.4687 12.6869 39.4299 12.7421 39.4032C12.7974 39.3766 12.8579 39.3627 12.9193 39.3627H13.0843L13.3263 39.4727C13.3764 39.4917 13.4215 39.5217 13.4583 39.5607C14.0193 40.1327 14.5583 40.1327 15.7683 40.1327C16.2109 40.1107 16.6498 40.0406 17.0773 39.9237C17.4351 39.8157 17.8042 39.7492 18.1773 39.7257C18.4665 39.7182 18.7471 39.8249 18.9583 40.0227C19.2602 40.3455 19.5876 40.6435 19.9373 40.9137C20.1638 41.0678 20.3739 41.2447 20.5643 41.4417C20.6853 41.5737 20.8283 41.7167 20.9493 41.8597L21.1253 42.0907C21.188 42.1644 21.2225 42.258 21.2225 42.3547C21.2225 42.4515 21.188 42.5451 21.1253 42.6187C20.4873 43.2567 20.0253 44.5547 20.6523 45.2257C20.7194 45.2902 20.7618 45.3762 20.7718 45.4687C20.7819 45.5613 20.759 45.6544 20.7073 45.7317C20.6721 45.7896 20.624 45.8386 20.5667 45.8749C20.5095 45.9111 20.4447 45.9337 20.3773 45.9407ZM43.9503 40.8147H43.8073C43.7202 40.7826 43.6473 40.721 43.601 40.6406C43.5548 40.5602 43.5382 40.4661 43.5543 40.3747C43.6623 39.0037 43.5396 37.6242 43.1913 36.2937C43.0815 36.099 42.9215 35.9371 42.7281 35.825C42.5347 35.7128 42.3149 35.6544 42.0913 35.6557H41.9483C40.6754 35.6517 39.4211 35.3503 38.2853 34.7757C37.4493 34.2257 37.4493 33.1257 37.4493 31.7287V30.8597C37.4493 30.0237 37.8783 28.9237 39.9133 28.3957C41.2317 28.0636 42.5687 27.8102 43.9173 27.6367H43.9833C44.034 27.6254 44.0866 27.6254 44.1373 27.6367L48.3613 29.4077C48.4392 29.4395 48.5054 29.4946 48.5507 29.5655C48.596 29.6365 48.6182 29.7197 48.6143 29.8037C48.4053 33.0267 46.2713 37.5697 44.2143 40.6387C44.1843 40.6843 44.1455 40.7233 44.1001 40.7535C44.0548 40.7838 44.0038 40.8046 43.9503 40.8147ZM12.4903 35.6997C12.2263 35.6997 11.8303 35.5457 11.6543 34.8087C10.9943 32.3887 10.5543 31.2337 9.66327 31.2337H9.13527C9.03974 31.2324 8.94772 31.1975 8.87532 31.1352C8.80292 31.0729 8.75476 30.987 8.73927 30.8927C8.60951 29.9558 8.5397 29.0116 8.53027 28.0657C8.54154 24.0556 9.78111 20.1451 12.0821 16.8608C14.3831 13.5765 17.6351 11.0759 21.4003 9.69575C21.4472 9.6841 21.4963 9.6841 21.5433 9.69575C21.5992 9.69617 21.6544 9.7081 21.7055 9.73081C21.7566 9.75352 21.8025 9.78652 21.8403 9.82775C21.8941 9.88604 21.9291 9.95915 21.9409 10.0376C21.9527 10.1161 21.9406 10.1962 21.9063 10.2677C21.7197 10.6528 21.6149 11.0722 21.5983 11.4997C21.6094 11.7691 21.6575 12.0356 21.7413 12.2917C21.9063 12.9517 22.1043 13.7437 21.7413 14.1507C21.4703 14.3832 21.1753 14.586 20.8613 14.7557C19.8383 15.4267 19.1233 15.9987 19.3763 16.9557C19.4643 17.2417 19.5303 17.5607 19.5963 17.8577V18.0117C19.6823 18.9224 20.0129 19.7928 20.5533 20.5307C20.9749 21.4978 21.1813 22.545 21.1583 23.5997C21.1583 24.0727 20.5203 25.2497 19.6733 25.2497H17.6823C17.1873 25.2497 16.4833 25.7557 15.2513 26.9767L15.1413 27.0757C15.0261 27.1928 14.901 27.2995 14.7673 27.3947C14.4356 27.6342 14.123 27.899 13.8323 28.1867C13.6392 28.374 13.4207 28.5333 13.1833 28.6597C12.9435 28.7578 12.7361 28.9211 12.5844 29.1311C12.4328 29.3411 12.343 29.5893 12.3253 29.8477C12.3758 30.5055 12.4676 31.1595 12.6003 31.8057C12.6797 32.2169 12.7384 32.6317 12.7763 33.0487C12.7431 33.7284 12.9581 34.3969 13.3813 34.9297C13.4194 34.9726 13.4472 35.0237 13.4625 35.079C13.4777 35.1343 13.4801 35.1924 13.4693 35.2487C13.4606 35.3056 13.4394 35.3599 13.407 35.4075C13.3746 35.4551 13.332 35.4948 13.2823 35.5237C13.0737 35.6397 12.8389 35.7003 12.6003 35.6997H12.4903ZM36.6903 26.4267C36.5762 26.4201 36.4659 26.3829 36.3711 26.319C36.2763 26.2552 36.2004 26.167 36.1513 26.0637C36.0034 25.6169 35.9671 25.1407 36.0458 24.6767C36.1244 24.2126 36.3155 23.7749 36.6023 23.4017C36.9414 22.8908 37.2323 22.3495 37.4713 21.7847V21.5427C37.4916 21.4536 37.5421 21.3742 37.6143 21.318C37.6865 21.2619 37.7759 21.2325 37.8673 21.2347C38.157 21.2328 38.4433 21.1712 38.7082 21.0539C38.9731 20.9366 39.2111 20.766 39.4073 20.5527C39.5974 20.3446 39.7424 20.0993 39.8333 19.8324C39.9242 19.5655 39.9589 19.2827 39.9353 19.0017C39.9353 17.2967 40.2213 16.8017 40.4413 16.6147C40.6408 16.4038 40.8211 16.1756 40.9803 15.9327C41.1269 15.7035 41.2965 15.4898 41.4863 15.2947C41.6094 15.1806 41.7507 15.0877 41.9043 15.0197L42.0033 14.9537C42.0645 14.9107 42.1375 14.8877 42.2123 14.8877C42.2698 14.888 42.3268 14.8998 42.3797 14.9224C42.4326 14.9451 42.4804 14.9782 42.5203 15.0197C44.3505 17.0592 45.7299 19.4619 46.5683 22.0707C46.5933 22.1526 46.5918 22.2402 46.5642 22.3211C46.5365 22.4021 46.4841 22.4723 46.4143 22.5217L46.2933 22.6097C46.1314 22.7073 45.9802 22.8216 45.8423 22.9507C45.4903 23.2807 45.6113 23.9407 45.7433 24.6997V24.8207V25.0407C45.7415 25.1379 45.7051 25.2312 45.6405 25.3039C45.576 25.3765 45.4876 25.4236 45.3913 25.4367H45.1053C45.0192 25.4331 44.9357 25.4065 44.8633 25.3597C44.8197 25.3274 44.7834 25.2861 44.7568 25.2387C44.7303 25.1913 44.7141 25.1389 44.7093 25.0847V24.9527C44.6763 24.6997 44.5003 23.8087 44.5003 23.3687C44.5003 22.3897 43.4003 21.7187 42.9603 21.5427C42.8326 21.4576 42.6845 21.4082 42.5313 21.3997C42.3661 21.3992 42.2061 21.4578 42.0803 21.5647L41.8823 21.7187C41.3543 22.0927 40.5953 22.6317 40.5953 23.2477C40.6582 23.94 40.5719 24.6377 40.3423 25.2937C40.3178 25.3644 40.2738 25.4267 40.2154 25.4734C40.157 25.5202 40.0866 25.5494 40.0123 25.5577C39.5001 25.6206 38.9999 25.7577 38.5273 25.9647C37.9572 26.2108 37.3523 26.3667 36.7343 26.4267H36.6903ZM37.2623 14.7227C36.8468 14.6963 36.4383 14.6035 36.0523 14.4477C35.7506 14.3016 35.4195 14.2264 35.0843 14.2277C34.9381 14.2115 34.7905 14.2115 34.6443 14.2277H34.5563C34.4787 14.2274 34.403 14.2043 34.3384 14.1612C34.2739 14.1182 34.2234 14.0572 34.1933 13.9857C34.0372 13.6402 33.9584 13.2648 33.9623 12.8857C33.962 12.8109 33.9824 12.7373 34.0212 12.6733C34.06 12.6092 34.1158 12.5572 34.1823 12.5227C34.4401 12.3952 34.7045 12.2814 34.9743 12.1817C35.7443 11.8847 36.2613 11.6427 36.2833 11.1587C36.2732 11.1116 36.2732 11.0629 36.2833 11.0157C36.3166 10.9365 36.361 10.8624 36.4153 10.7957C36.4477 10.7321 36.4972 10.6788 36.5583 10.6417C36.6269 10.597 36.7074 10.574 36.7893 10.5757C36.8394 10.5597 36.8932 10.5597 36.9433 10.5757C37.5936 10.9076 38.2252 11.2748 38.8353 11.6757C38.9035 11.722 38.957 11.7869 38.9893 11.8627C39.4073 12.8527 38.8793 13.4577 37.9773 14.3487C37.7914 14.5686 37.5269 14.7068 37.2403 14.7337L37.2623 14.7227Z" fill="#222222"/>
<path d="M21.521 10.0701C21.3137 10.5034 21.2012 10.9759 21.191 11.4561C21.2047 11.7692 21.2564 12.0795 21.345 12.3801C21.466 12.8531 21.653 13.5901 21.411 13.8321C21.1693 14.0341 20.9076 14.211 20.63 14.3601C19.816 14.8991 18.573 15.6581 18.947 17.0661C19.035 17.4071 19.112 17.7701 19.189 18.1661C19.2901 19.1279 19.6429 20.0461 20.212 20.8281C20.5795 21.7055 20.7629 22.6489 20.751 23.6001C20.751 23.8971 20.245 24.8431 19.651 24.8431H17.682C17.055 24.8431 16.296 25.3711 14.965 26.6911L14.877 26.7681C14.77 26.8787 14.6521 26.9782 14.525 27.0651C14.1812 27.3226 13.8542 27.6018 13.546 27.9011C13.3787 28.062 13.1899 28.1989 12.985 28.3081C12.6765 28.4306 12.4093 28.6385 12.2145 28.9073C12.0197 29.1761 11.9054 29.4948 11.885 29.8261C11.9381 30.5164 12.0299 31.2031 12.16 31.8831C12.226 32.3341 12.325 32.8951 12.325 33.0491C12.2941 33.8221 12.5442 34.5802 13.029 35.1831C12.8836 35.2614 12.7212 35.303 12.556 35.3041H12.49C12.402 35.3041 12.16 35.3041 12.017 34.7211C11.357 32.3121 10.917 30.8381 9.63005 30.8381H9.10205C8.98047 29.9189 8.91436 28.9932 8.90405 28.0661C8.90841 24.1348 10.1212 20.2998 12.378 17.0808C14.6349 13.8618 17.8267 11.4144 21.521 10.0701ZM36.8 11.0491C37.438 11.3791 38.054 11.7311 38.648 12.1491C38.956 12.8751 38.648 13.2491 37.724 14.1951C37.6638 14.2553 37.5915 14.3021 37.5118 14.3324C37.4322 14.3628 37.3471 14.3759 37.262 14.3711C36.8842 14.3385 36.5135 14.2495 36.162 14.1071C35.8185 13.9441 35.4423 13.8613 35.062 13.8651C34.8845 13.862 34.7072 13.8805 34.534 13.9201C34.412 13.6272 34.3485 13.3133 34.347 12.9961C34.5891 12.8703 34.839 12.7601 35.095 12.6661C35.81 12.3911 36.624 12.0721 36.668 11.2911C36.6941 11.2264 36.7313 11.1668 36.778 11.1151L36.8 11.0491ZM42.278 15.3721C44.0717 17.3665 45.4248 19.7166 46.249 22.2691L46.128 22.3461C45.9512 22.4584 45.7854 22.5873 45.633 22.7311C45.105 23.2371 45.27 24.0731 45.435 24.9311V25.0851H45.204C45.204 25.0081 44.951 23.8531 44.907 23.3361C44.907 22.2361 43.73 21.4221 43.114 21.1361C42.9187 21.0119 42.6892 20.9524 42.4581 20.9663C42.227 20.9801 42.0062 21.0665 41.827 21.2131L41.629 21.3671C41.057 21.7741 40.188 22.3791 40.188 23.2151C40.2496 23.8623 40.1708 24.5151 39.957 25.1291C39.4074 25.194 38.8701 25.3385 38.362 25.5581C37.8333 25.7865 37.2735 25.9347 36.701 25.9981C36.6611 25.9937 36.6232 25.9779 36.592 25.9525C36.5607 25.9272 36.5375 25.8933 36.525 25.8551C36.4099 25.4828 36.3868 25.0882 36.4577 24.705C36.5285 24.3218 36.6913 23.9615 36.932 23.6551C37.2957 23.1149 37.6052 22.5401 37.856 21.9391L37.922 21.6311H37.988C38.3253 21.6262 38.6579 21.5521 38.9653 21.4134C39.2727 21.2747 39.5484 21.0744 39.7752 20.8248C40.0021 20.5753 40.1753 20.2818 40.2842 19.9626C40.393 19.6434 40.4352 19.3052 40.408 18.9691C40.408 17.5831 40.606 17.0771 40.782 16.9121C41.0106 16.6818 41.2135 16.4273 41.387 16.1531C41.519 15.9423 41.674 15.7468 41.849 15.5701C41.9356 15.4953 42.0318 15.4324 42.135 15.3831L42.278 15.2951V15.3721ZM44.027 28.0001L48.251 29.7711C48.042 33.0711 45.776 37.6471 43.95 40.4081C44.0881 38.9289 43.9501 37.4369 43.543 36.0081C43.4037 35.7578 43.2017 35.5481 42.9567 35.3996C42.7118 35.251 42.4324 35.1689 42.146 35.1611H41.981C40.7762 35.1602 39.5887 34.8737 38.516 34.3251C37.9 33.9731 37.9 33.0161 37.9 31.6961V30.8271C37.9 29.8151 38.637 29.1221 40.1 28.7591C41.3927 28.4279 42.7041 28.1745 44.027 28.0001ZM12.941 39.7591L13.183 39.8691C13.876 40.5621 14.514 40.5621 15.79 40.5621C16.2704 40.549 16.7472 40.4751 17.209 40.3421C17.5425 40.2458 17.8856 40.1868 18.232 40.1661C18.3221 40.1612 18.4122 40.1743 18.4972 40.2045C18.5821 40.2347 18.6603 40.2815 18.727 40.3421C19.0411 40.6787 19.3834 40.9878 19.75 41.2661C19.9581 41.4099 20.1499 41.5758 20.322 41.7611C20.455 41.885 20.5799 42.0173 20.696 42.1571L20.85 42.3661C20.113 43.1031 19.519 44.6651 20.377 45.5341C17.456 44.2587 14.8999 42.2735 12.941 39.7591ZM21.521 9.30009C21.4264 9.28409 21.3297 9.28409 21.235 9.30009C17.4054 10.7112 14.0979 13.258 11.7548 16.5997C9.41167 19.9414 8.14461 23.9188 8.12305 28.0001C8.13569 28.9681 8.20917 29.9343 8.34305 30.8931C8.36953 31.0846 8.46421 31.2601 8.6097 31.3874C8.75519 31.5147 8.94172 31.5853 9.13505 31.5861H9.66305C10.268 31.5861 10.664 32.6861 11.269 34.8861C11.522 35.9861 12.226 36.0631 12.523 36.0631H12.6C12.9128 36.0596 13.2195 35.9763 13.491 35.8211C13.5886 35.7609 13.6723 35.6808 13.7368 35.586C13.8012 35.4912 13.8449 35.3839 13.865 35.2711C13.8859 35.1574 13.8819 35.0406 13.8534 34.9286C13.825 34.8166 13.7726 34.712 13.7 34.6221C13.3475 34.1661 13.1612 33.6034 13.172 33.0271C13.1433 32.5878 13.0882 32.1507 13.007 31.7181C12.8781 31.0753 12.7899 30.425 12.743 29.7711C12.7601 29.6046 12.821 29.4456 12.9195 29.3103C13.0181 29.175 13.1508 29.0683 13.304 29.0011H13.392C13.6481 28.859 13.8879 28.6893 14.107 28.4951C14.387 28.2042 14.6925 27.9391 15.02 27.7031C15.1791 27.5938 15.3265 27.4684 15.46 27.3291H15.515C15.944 26.9001 17.165 25.6901 17.715 25.6901H19.706C20.861 25.6901 21.587 24.2381 21.587 23.6331C21.6101 22.5581 21.4078 21.4902 20.993 20.4981C20.9683 20.4385 20.9349 20.383 20.894 20.3331C20.4109 19.6628 20.1113 18.8778 20.025 18.0561C20.025 18.0561 20.025 18.0011 20.025 17.9681V17.8251C19.959 17.5171 19.882 17.1871 19.805 16.8901C19.629 16.2081 20.047 15.7901 21.07 15.1301H21.125C21.4434 14.9619 21.7423 14.759 22.016 14.5251C22.577 13.9531 22.357 13.0401 22.17 12.3251C22.1711 12.3068 22.1711 12.2884 22.17 12.2701C22.0916 12.0398 22.0507 11.7984 22.049 11.5551C22.0638 11.2053 22.1459 10.8617 22.291 10.5431C22.3612 10.4004 22.3862 10.2397 22.3626 10.0824C22.339 9.9252 22.268 9.77889 22.159 9.66309C22.0839 9.58011 21.9922 9.51376 21.89 9.4683C21.7877 9.42283 21.677 9.39926 21.565 9.39909L21.521 9.30009ZM36.8 10.2461C36.6488 10.2474 36.5007 10.2892 36.371 10.3671C36.2381 10.4541 36.1316 10.5758 36.063 10.7191L35.942 10.9281C35.9085 11.0242 35.8863 11.1238 35.876 11.2251C35.876 11.4561 35.392 11.6651 34.776 11.8851C34.497 11.9838 34.225 12.1014 33.962 12.2371C33.8278 12.3025 33.7145 12.4041 33.6348 12.5304C33.5552 12.6567 33.5123 12.8028 33.511 12.9521C33.5095 13.384 33.5995 13.8114 33.775 14.2061C33.8384 14.349 33.9416 14.4707 34.0723 14.5565C34.203 14.6423 34.3557 14.6887 34.512 14.6901H34.677C34.7975 14.6739 34.9196 14.6739 35.04 14.6901C35.3029 14.692 35.5621 14.7522 35.799 14.8661H35.887C36.3116 15.0369 36.7612 15.1372 37.218 15.1631C37.4091 15.1696 37.5994 15.1368 37.7773 15.0668C37.9551 14.9968 38.1167 14.8911 38.252 14.7561C39.055 13.9531 39.902 13.1281 39.352 11.8191C39.2842 11.6724 39.1777 11.5469 39.044 11.4561C38.4225 11.0553 37.7799 10.6881 37.119 10.3561C37.0062 10.2998 36.8821 10.2697 36.756 10.2681L36.8 10.2461ZM42.3 14.4921C42.1472 14.4932 41.998 14.5391 41.871 14.6241L41.761 14.6901C41.6052 14.7646 41.4608 14.8609 41.332 14.9761C41.124 15.1931 40.9362 15.4288 40.771 15.6801C40.6244 15.9093 40.4548 16.1231 40.265 16.3181C39.858 16.7031 39.66 17.5281 39.66 18.9361V19.0021C39.6718 19.2428 39.6318 19.4833 39.5426 19.7073C39.4534 19.9312 39.3171 20.1334 39.143 20.3001C38.9871 20.4656 38.7999 20.5985 38.5921 20.691C38.3844 20.7836 38.1604 20.8339 37.933 20.8391C37.7531 20.841 37.5788 20.9025 37.4375 21.0139C37.2962 21.1254 37.1958 21.2805 37.152 21.4551L37.097 21.6971C36.8681 22.2233 36.5919 22.7277 36.272 23.2041C35.9538 23.6127 35.7361 24.0905 35.6368 24.5988C35.5374 25.1071 35.5591 25.6317 35.7 26.1301L35.766 26.2731C35.8488 26.4393 35.9757 26.5796 36.1328 26.6786C36.29 26.7775 36.4713 26.8313 36.657 26.8341H36.8C37.4563 26.7695 38.0985 26.6025 38.703 26.3391C39.1445 26.148 39.6114 26.022 40.089 25.9651C40.2373 25.9427 40.3768 25.8808 40.4929 25.786C40.609 25.6912 40.6975 25.5669 40.749 25.4261C40.9934 24.72 41.0871 23.9706 41.024 23.2261C41.024 22.8191 41.717 22.3461 42.124 22.0711L42.355 21.8951C42.4103 21.8393 42.4855 21.8076 42.564 21.8071C42.6148 21.7961 42.6673 21.7961 42.718 21.8071L42.839 21.8731C43.257 22.0491 44.126 22.6211 44.126 23.2921C44.1209 23.3138 44.1209 23.3364 44.126 23.3581C44.1849 23.924 44.2767 24.4859 44.401 25.0411V25.1731C44.4323 25.3606 44.529 25.5309 44.674 25.6538C44.8191 25.7766 45.003 25.8441 45.193 25.8441H45.314H45.545C45.7355 25.8174 45.9097 25.7223 46.0352 25.5766C46.1607 25.4308 46.2289 25.2444 46.227 25.0521V24.8981C46.2321 24.8506 46.2321 24.8026 46.227 24.7551V24.6451C46.128 24.0511 46.018 23.4351 46.227 23.2481C46.3382 23.1441 46.4599 23.052 46.59 22.9731L46.744 22.8631C46.8859 22.7635 46.9922 22.6213 47.0476 22.4571C47.103 22.2928 47.1046 22.1152 47.052 21.9501C46.1718 19.2968 44.7397 16.8601 42.85 14.8001C42.7747 14.7137 42.6817 14.6445 42.5773 14.5971C42.473 14.5496 42.3597 14.5251 42.245 14.5251L42.3 14.4921ZM44.082 27.1861H43.961C42.6019 27.366 41.254 27.623 39.924 27.9561C37.625 28.5501 37.141 29.8371 37.141 30.8161V31.6851C37.141 33.1371 37.141 34.4021 38.12 35.0511H38.197C39.3866 35.6557 40.7016 35.9722 42.036 35.9751H42.223C42.3617 35.985 42.4955 36.0308 42.6112 36.1079C42.7269 36.185 42.8205 36.2909 42.883 36.4151C43.1971 37.6615 43.3085 38.9503 43.213 40.2321C43.181 40.4148 43.2141 40.603 43.3065 40.7638C43.399 40.9246 43.545 41.0479 43.719 41.1121C43.8132 41.133 43.9109 41.133 44.005 41.1121C44.1397 41.1118 44.2723 41.0786 44.3912 41.0154C44.51 40.9521 44.6116 40.8607 44.687 40.7491C46.744 37.6361 48.911 33.0491 49.087 29.7491C49.0974 29.5819 49.0553 29.4157 48.9665 29.2737C48.8778 29.1317 48.7468 29.021 48.592 28.9571L44.379 27.1861C44.2784 27.1422 44.1698 27.1197 44.06 27.1201L44.082 27.1861ZM12.941 39.0001C12.7899 39.0016 12.6421 39.0452 12.5143 39.126C12.3865 39.2067 12.2837 39.3215 12.2175 39.4574C12.1513 39.5933 12.1242 39.745 12.1393 39.8954C12.1544 40.0458 12.2111 40.1891 12.303 40.3091C14.3513 42.9246 17.0157 44.9918 20.058 46.3261C20.2307 46.3999 20.4236 46.4118 20.6041 46.3597C20.7845 46.3076 20.9414 46.1947 21.048 46.0401C21.1531 45.8854 21.2017 45.6993 21.1857 45.513C21.1697 45.3267 21.09 45.1516 20.96 45.0171C20.509 44.5551 20.96 43.4881 21.422 42.9821C21.56 42.8472 21.6439 42.6665 21.6581 42.4741C21.6722 42.2817 21.6157 42.0908 21.499 41.9371L21.345 41.7171C21.202 41.5422 21.0477 41.3768 20.883 41.2221C20.6791 41.0094 20.4543 40.8178 20.212 40.6501C19.8928 40.4 19.5915 40.128 19.31 39.8361C19.1678 39.6904 18.9961 39.5767 18.8064 39.5028C18.6167 39.4288 18.4134 39.3962 18.21 39.4071C17.8003 39.4251 17.3941 39.4915 17 39.6051C16.5872 39.7184 16.1628 39.7848 15.735 39.8031C14.492 39.8031 14.173 39.8031 13.744 39.3521C13.6719 39.2776 13.586 39.2179 13.491 39.1761L13.249 39.0661C13.1443 39.0231 13.0323 39.0007 12.919 39.0001H12.941Z" fill="#222222"/>
<path d="M28 8.2C31.9161 8.2 35.7442 9.36125 39.0003 11.5369C42.2564 13.7126 44.7942 16.8049 46.2928 20.4229C47.7914 24.0408 48.1835 28.022 47.4196 31.8628C46.6556 35.7036 44.7698 39.2316 42.0007 42.0007C39.2316 44.7698 35.7036 46.6556 31.8628 47.4196C28.022 48.1835 24.0409 47.7914 20.4229 46.2928C16.8049 44.7942 13.7126 42.2564 11.5369 39.0003C9.36126 35.7442 8.20001 31.9161 8.20001 28C8.22029 22.755 10.3129 17.7305 14.0217 14.0217C17.7305 10.3129 22.755 8.22028 28 8.2ZM28 6C23.6488 6 19.3953 7.29028 15.7775 9.70767C12.1596 12.1251 9.33979 15.561 7.67466 19.581C6.00953 23.6009 5.57386 28.0244 6.42273 32.292C7.27161 36.5596 9.36691 40.4796 12.4437 43.5564C15.5204 46.6331 19.4404 48.7284 23.708 49.5773C27.9756 50.4262 32.3991 49.9905 36.419 48.3254C40.439 46.6602 43.8749 43.8404 46.2923 40.2225C48.7097 36.6047 50 32.3512 50 28C50 25.1109 49.431 22.2501 48.3254 19.581C47.2198 16.9118 45.5992 14.4865 43.5564 12.4437C41.5135 10.4008 39.0882 8.78025 36.419 7.67465C33.7499 6.56905 30.8891 6 28 6Z" fill="#222222"/>
</g>
</g>
<defs>
<clipPath id="clip0_2493_8267">
<rect width="56" height="56" fill="white"/>
</clipPath>
<clipPath id="clip1_2493_8267">
<rect width="56" height="56" fill="white"/>
</clipPath>
</defs>
</svg>
