<?xml version="1.0" encoding="utf-8"?>
<!-- Generator: Adobe Illustrator 25.3.1, SVG Export Plug-In . SVG Version: 6.00 Build 0)  -->
<svg version="1.1" id="Layer_1" xmlns="http://www.w3.org/2000/svg" xmlns:xlink="http://www.w3.org/1999/xlink" x="0px" y="0px"
	 viewBox="0 0 139 16" enable-background="new 0 0 139 16" xml:space="preserve">
<path fill="#222222" d="M38.572464,15.853439V0.007448h6.741467c0.764568,0,1.459568,0.139008,2.085003,0.486508
	c0.625431,0.278017,1.181465,0.695,1.598534,1.250992c0.417065,0.555991,0.833965,1.111983,1.0425,1.7375
	c0.277931,0.625517,0.417068,1.320517,0.417068,1.945992c0,0.695-0.138969,1.39-0.3475,2.015517
	c-0.277935,0.625517-0.556034,1.181509-1.042503,1.7375c-0.417065,0.486509-0.972931,0.903492-1.598534,1.181509
	c-0.625431,0.278017-1.320431,0.416983-2.084999,0.416983h-3.197067v5.142996h-3.613968V15.853439z M42.256001,7.582964h2.988533
	c0.417068,0,0.833965-0.208491,1.112068-0.555991c0.3475-0.3475,0.486465-0.903491,0.486465-1.598492
	c0-0.3475-0.069569-0.695-0.138966-0.973017c-0.069569-0.278017-0.208534-0.486508-0.417068-0.695
	c-0.138966-0.208492-0.3475-0.278017-0.556034-0.416983s-0.417068-0.139009-0.625431-0.139009h-2.849567V7.582964
	L42.256001,7.582964z"/>
<path fill="#222222" d="M51.499535,15.853439V0.007448h7.158531c0.764568,0,1.459568,0.139008,2.085003,0.486508
	c0.625431,0.278017,1.181465,0.695,1.667931,1.250992c0.486465,0.486508,0.833965,1.111983,1.112068,1.7375
	c0.277931,0.625517,0.417068,1.320517,0.417068,1.945992c0,0.486508-0.069569,0.973017-0.208534,1.39
	c-0.138966,0.486508-0.277931,0.903491-0.486465,1.250991c-0.208534,0.416984-0.486465,0.764483-0.833965,1.111983
	c-0.347504,0.3475-0.695004,0.625517-1.112068,0.834008l3.613968,5.9075h-4.100437l-3.197067-5.143017h-2.36293v5.142996h-3.753101
	V15.853439z M55.182899,7.582964h3.336033c0.417068,0,0.833965-0.208491,1.112068-0.625517
	c0.3475-0.416983,0.486465-0.903491,0.486465-1.598492c0-0.625517-0.208534-1.181508-0.556034-1.529008
	c-0.3475-0.416983-0.764568-0.555992-1.181465-0.555992h-3.266468L55.182899,7.582964L55.182899,7.582964z"/>
<path fill="#222222" d="M65.816429,15.853439V0.007448h3.683533v15.845992H65.816429z"/>
<path fill="#222222" d="M74.851433,6.818439v9.035H71.1679V0.007448h2.849564l7.367073,9.313017V0.007448h3.683533v15.845992
	h-2.918968L74.851433,6.818439z"/>
<path fill="#222222" d="M99.315399,3.204431h-4.795433v12.649009h-3.683533V3.204431h-4.865005V0.007448h13.343971V3.204431z"/>
<path fill="#222222" d="M100.218933,15.853439V0.007448h10.772499v3.196983h-7.088966v3.405517h5.837929v2.988492h-5.837929v6.255
	H100.218933L100.218933,15.853439z"/>
<path fill="#222222" d="M118.706001,12.725939c0.625427,0,1.181465-0.139009,1.598534-0.416983
	c0.417068-0.278017,0.764565-0.625517,1.042496-1.0425c0.277931-0.416983,0.486465-0.903491,0.556038-1.459482
	c0.138962-0.555992,0.138962-1.111983,0.138962-1.7375V0.007448h3.683533v8.131509c0,1.111983-0.138962,2.154483-0.417061,3.058017
	c-0.277939,0.973017-0.695,1.806983-1.251038,2.501983c-0.55603,0.695001-1.320435,1.250992-2.154564,1.667996
	c-0.834137,0.417004-1.946037,0.625496-3.127502,0.625496c-1.251038,0-2.36293-0.208492-3.266464-0.625496
	c-0.903534-0.417005-1.598534-1.042521-2.154572-1.737521c-0.55603-0.695001-0.972931-1.529009-1.25103-2.501984
	c-0.278107-0.972974-0.417068-1.945992-0.417068-2.988491V0.007448h3.683533v8.131509c0,0.625517,0.069565,1.181508,0.208534,1.7375
	c0.138962,0.555991,0.347496,1.0425,0.55603,1.459483c0.277931,0.416983,0.625435,0.764482,1.042503,1.0425
	C117.593933,12.58693,118.080399,12.725939,118.706001,12.725939z"/>
<path fill="#222222" d="M127.671432,15.853439V0.007448h3.683533v12.649009h7.645004v3.197004h-11.328537V15.853439z"/>
<polygon fill="#F2C994" points="-0.000034,15.992448 9.312899,0.007448 18.625999,15.992448 "/>
<polygon fill="#ED4642" points="8.409534,15.992448 17.722466,0.007448 27.035398,15.992448 "/>
<polygon fill="#17BCB5" points="16.818932,15.992448 26.132034,0.007448 35.444965,15.992448 "/>
<polygon fill="#DF392F" points="8.409534,15.992448 18.625999,15.992448 13.482898,7.235465 "/>
<polygon fill="#16342F" points="16.818932,15.992448 27.035398,15.992448 21.962034,7.235465 "/>
<polygon fill="#15291A" points="16.818932,15.992448 18.625999,15.992448 17.722466,14.463439 "/>
</svg>
